<svg width="40" height="40" fill="none" xmlns="http://www.w3.org/2000/svg"><path fill-rule="evenodd" clip-rule="evenodd" d="M31.352 36.468A19.908 19.908 0 0120 40C8.954 40 0 31.046 0 20S8.954 0 20 0c10.36 0 18.879 7.876 19.898 17.966.067.304.102.62.102.943v16.727a4.364 4.364 0 01-8.648.832zM31.272 20c0 6.226-5.046 11.273-11.272 11.273S8.727 26.226 8.727 20 13.774 8.727 20 8.727 31.273 13.774 31.273 20z" fill="#000"/><path fill-rule="evenodd" clip-rule="evenodd" d="M31.352 36.468A19.908 19.908 0 0120 40C8.954 40 0 31.046 0 20S8.954 0 20 0c10.36 0 18.879 7.876 19.898 17.966.067.304.102.62.102.943v16.727a4.364 4.364 0 01-8.648.832zM31.272 20c0 6.226-5.046 11.273-11.272 11.273S8.727 26.226 8.727 20 13.774 8.727 20 8.727 31.273 13.774 31.273 20z" fill="url(#paint0_angular)"/><defs><radialGradient id="paint0_angular" cx="0" cy="0" r="1" gradientUnits="userSpaceOnUse" gradientTransform="matrix(15.45357 10.25547 -10.87085 16.38085 20 20)"><stop stop-color="#4130FF"/><stop offset=".213" stop-color="#50CAFF"/><stop offset=".416" stop-color="#12EC69"/><stop offset=".624" stop-color="#FFC658"/><stop offset=".807" stop-color="#FF006B"/><stop offset="1" stop-color="#4130FF"/></radialGradient></defs></svg>